<?xml version="1.0" encoding="UTF-8"?>
<svg width="6px" height="11px" viewBox="0 0 6 11" version="1.1" xmlns="http://www.w3.org/2000/svg" xmlns:xlink="http://www.w3.org/1999/xlink">
    <!-- Generator: sketchtool 57.1 (101010) - https://sketch.com -->
    <title>216809AB-A923-4DA4-8554-BE43A8E6A851</title>
    <desc>Created with sketchtool.</desc>
    <g id="Page-2" stroke="none" stroke-width="1" fill="none" fill-rule="evenodd">
        <g id="Manage-Link-and-Search-Show-history" transform="translate(-457.000000, -831.000000)" fill="#009FDD">
            <g id="Group-8-Copy-4" transform="translate(438.000000, 812.000000)">
                <g id="Dropdown-expand-ic-Copy-3" transform="translate(22.000000, 24.500000) rotate(90.000000) translate(-22.000000, -24.500000) translate(19.000000, 19.000000)">
                    <g id="Dropdown-expand-Copy-2-Elements-/-Dropdownicon-Copy-2" transform="translate(3.000000, 5.500000) rotate(-90.000000) translate(-3.000000, -5.500000) translate(-2.000000, 3.000000)">
                        <path d="M9.814375,0.635333333 L5.439375,5.302 C5.315625,5.434 5.16916667,5.5 5,5.5 C4.83083333,5.5 4.684375,5.434 4.560625,5.302 L0.185625,0.635333333 C0.061875,0.503333333 0,0.347111111 0,0.166666667 C0,-0.0137777778 0.061875,-0.17 0.185625,-0.302 C0.309375,-0.434 0.455833333,-0.5 0.625,-0.5 L9.375,-0.5 C9.54416667,-0.5 9.690625,-0.434 9.814375,-0.302 C9.938125,-0.17 10,-0.0137777778 10,0.166666667 C10,0.347111111 9.938125,0.503333333 9.814375,0.635333333 Z" id="Shape" transform="translate(5.000000, 2.500000) rotate(-90.000000) translate(-5.000000, -2.500000) "></path>
                    </g>
                </g>
            </g>
        </g>
    </g>
</svg>