<svg xmlns="http://www.w3.org/2000/svg" xmlns:xlink="http://www.w3.org/1999/xlink" width="24px" height="24px" viewBox="0 0 24 24" version="1.1">
    <!-- Generator: sketchtool 53.2 (72643) - https://sketchapp.com -->
    <title>282D41F1-82AC-4DD5-96AF-5DD136D10727</title>
    <desc>Created with sketchtool.</desc>
    <g id="Page-1" stroke="none" stroke-width="1" fill="#009fdd" fill-rule="evenodd">
        <g id="J-Manage-link" transform="translate(-746.000000, -1438.000000)">
            <g id="Group-15" transform="translate(485.000000, 1334.000000)">
                <g id="Speaker" transform="translate(261.000000, 104.000000)">
                    <circle id="Oval-2" fill="#009fdd" cx="12" cy="12" r="12"/>
                    <path d="M8.9127718,14.5758424 L6.25626118,14.5758424 C5.70281753,14.5758424 5.25,14.1961549 5.25,13.7320924 L5.25,10.3570924 C5.25,9.89302994 5.70281753,9.51334244 6.25626118,9.51334244 L8.8822748,9.51334244 L11.8343144,7.03761118 C11.9843144,6.92707993 12.1068859,6.98698618 12.1068859,7.17261118 L12.1068859,16.9170799 C12.1068859,17.1027049 11.9843144,17.1626111 11.8343144,17.0512361 L8.9127718,14.5758424 Z M17.0361539,16.7357578 C16.8552968,16.5855703 16.8330111,16.319789 16.9855825,16.1417578 C19.0881539,13.6982579 19.0881539,10.286133 16.9855825,7.84347678 C16.8330111,7.66544554 16.8552968,7.3996643 17.0361539,7.24863305 C17.2170111,7.09928931 17.4861539,7.12038306 17.6404396,7.29757055 C20.0181539,10.0616955 20.0181539,13.9226953 17.6404396,16.6868203 C17.5547254,16.785539 17.4347254,16.836164 17.3130111,16.836164 C17.2152968,16.836164 17.1167254,16.8032578 17.0361539,16.7357578 Z M14.0298819,15.0184734 C13.8524533,14.8640671 13.8344533,14.5974421 13.9913105,14.4227859 C15.2693105,12.991786 15.2693105,10.9929423 13.9913105,9.56194233 C13.8344533,9.38728608 13.8524533,9.12066109 14.0298819,8.96625485 C14.2073105,8.81269236 14.4773105,8.8304111 14.6341676,9.00506735 C16.2061676,10.7634423 16.2061676,13.2212859 14.6341676,14.9796609 C14.5501676,15.0741609 14.4318819,15.1230984 14.312739,15.1230984 C14.2124533,15.1230984 14.1113105,15.0885046 14.0298819,15.0184734 Z" fill="#FFFFFF"/>
                </g>
            </g>
        </g>
    </g>
</svg>