<?xml version="1.0" encoding="UTF-8"?>
<svg width="304px" height="281px" viewBox="0 0 304 281" version="1.1" xmlns="http://www.w3.org/2000/svg" xmlns:xlink="http://www.w3.org/1999/xlink">
    <!-- Generator: sketchtool 57.1 (101010) - https://sketch.com -->
    <title>C9D0BF2D-F983-46E8-878C-A4085C02A2A2</title>
    <desc>Created with sketchtool.</desc>
    <defs>
        <linearGradient x1="50%" y1="100%" x2="50%" y2="0%" id="linearGradient-1">
            <stop stop-color="#808080" stop-opacity="0.25" offset="0%"></stop>
            <stop stop-color="#808080" stop-opacity="0.12" offset="54%"></stop>
            <stop stop-color="#808080" stop-opacity="0.1" offset="100%"></stop>
        </linearGradient>
        <linearGradient x1="50%" y1="100%" x2="50%" y2="0%" id="linearGradient-2">
            <stop stop-color="#808080" stop-opacity="0.25" offset="0%"></stop>
            <stop stop-color="#808080" stop-opacity="0.12" offset="54%"></stop>
            <stop stop-color="#808080" stop-opacity="0.1" offset="100%"></stop>
        </linearGradient>
        <linearGradient x1="50%" y1="100%" x2="50%" y2="0%" id="linearGradient-3">
            <stop stop-color="#808080" stop-opacity="0.25" offset="0%"></stop>
            <stop stop-color="#808080" stop-opacity="0.12" offset="54%"></stop>
            <stop stop-color="#808080" stop-opacity="0.1" offset="100%"></stop>
        </linearGradient>
        <rect id="path-4" x="0.1944" y="0.2592" width="51.7644" height="34.8948"></rect>
        <rect id="path-6" x="0.1944" y="0.1512" width="51.7644" height="34.8948"></rect>
        <linearGradient x1="0%" y1="50%" x2="100%" y2="50%" id="linearGradient-8">
            <stop stop-color="#808080" stop-opacity="0.25" offset="0%"></stop>
            <stop stop-color="#808080" stop-opacity="0.12" offset="54%"></stop>
            <stop stop-color="#808080" stop-opacity="0.1" offset="100%"></stop>
        </linearGradient>
        <linearGradient x1="0.00629643622%" y1="50.0018066%" x2="100.006296%" y2="50.0018066%" id="linearGradient-9">
            <stop stop-color="#808080" stop-opacity="0.25" offset="0%"></stop>
            <stop stop-color="#808080" stop-opacity="0.12" offset="54%"></stop>
            <stop stop-color="#808080" stop-opacity="0.1" offset="100%"></stop>
        </linearGradient>
        <linearGradient x1="50.0002221%" y1="100.000449%" x2="50.0002221%" y2="0.00140337287%" id="linearGradient-10">
            <stop stop-color="#B3B3B3" stop-opacity="0.25" offset="0%"></stop>
            <stop stop-color="#B3B3B3" stop-opacity="0.1" offset="54%"></stop>
            <stop stop-color="#B3B3B3" stop-opacity="0.05" offset="100%"></stop>
        </linearGradient>
        <linearGradient x1="49.9800916%" y1="99.9486916%" x2="49.9800916%" y2="0%" id="linearGradient-11">
            <stop stop-color="#000000" stop-opacity="0.12" offset="0%"></stop>
            <stop stop-color="#000000" stop-opacity="0.09" offset="55%"></stop>
            <stop stop-color="#000000" stop-opacity="0.02" offset="100%"></stop>
        </linearGradient>
        <linearGradient x1="49.9885247%" y1="100.005627%" x2="49.9885247%" y2="0.0076852476%" id="linearGradient-12">
            <stop stop-color="#000000" stop-opacity="0.12" offset="0%"></stop>
            <stop stop-color="#000000" stop-opacity="0.09" offset="55%"></stop>
            <stop stop-color="#000000" stop-opacity="0.02" offset="100%"></stop>
        </linearGradient>
    </defs>
    <g id="Page-2" stroke="none" stroke-width="1" fill="none" fill-rule="evenodd">
        <g id="NO-results-found" transform="translate(-685.000000, -468.000000)">
            <g id="undraw_file_searching_duff" transform="translate(685.000000, 468.000000)">
                <g id="Group" opacity="0.5" transform="translate(55.440000, 47.160000)" fill="url(#linearGradient-1)" fill-rule="nonzero">
                    <rect id="Rectangle" x="0.054" y="0.0756" width="161.4384" height="216.936"></rect>
                </g>
                <rect id="Rectangle" fill="#F2F2F2" fill-rule="nonzero" x="57.5964" y="50.1804" width="156.3948" height="209.3688"></rect>
                <rect id="Rectangle" fill="#E0E0E0" fill-rule="nonzero" x="69.7896" y="59.0076" width="53.8128" height="1.6812"></rect>
                <rect id="Rectangle" fill="#009FDD" fill-rule="nonzero" opacity="0.7" x="69.7896" y="66.5748" width="53.8128" height="1.6812"></rect>
                <rect id="Rectangle" fill="#E0E0E0" fill-rule="nonzero" x="131.5908" y="59.0076" width="53.8128" height="1.6812"></rect>
                <rect id="Rectangle" fill="#E0E0E0" fill-rule="nonzero" x="139.9968" y="106.938" width="53.8128" height="1.6812"></rect>
                <rect id="Rectangle" fill="#E0E0E0" fill-rule="nonzero" x="141.2604" y="111.5604" width="53.8128" height="1.6812"></rect>
                <rect id="Rectangle" fill="#E0E0E0" fill-rule="nonzero" x="143.784" y="116.1864" width="53.8128" height="1.6812"></rect>
                <rect id="Rectangle" fill="#E0E0E0" fill-rule="nonzero" x="139.9968" y="181.35" width="53.8128" height="1.6812"></rect>
                <rect id="Rectangle" fill="#E0E0E0" fill-rule="nonzero" x="141.2604" y="185.976" width="53.8128" height="1.6812"></rect>
                <rect id="Rectangle" fill="#E0E0E0" fill-rule="nonzero" x="143.784" y="190.5984" width="53.8128" height="1.6812"></rect>
                <g id="Group" opacity="0.5" transform="translate(70.200000, 89.640000)" fill="url(#linearGradient-2)" fill-rule="nonzero">
                    <rect id="Rectangle" x="0.0108" y="0.0576" width="57.1752" height="58.0176"></rect>
                </g>
                <rect id="Rectangle" fill="#F5F5F5" fill-rule="nonzero" x="70.5708" y="90.9612" width="56.2752" height="55.494"></rect>
                <g id="Group" opacity="0.5" transform="translate(72.360000, 94.320000)" fill="url(#linearGradient-3)" fill-rule="nonzero">
                    <rect id="Rectangle" x="0.1944" y="0.0036" width="52.488" height="36.1548"></rect>
                </g>
                <rect id="e1f34465-d008-41db-868b-e00503fb87b3" fill="#FFFFFF" fill-rule="nonzero" x="72.9144" y="94.7448" width="51.7644" height="34.8948"></rect>
                <g id="Clipped" transform="translate(137.160000, 116.280000)">
                    <mask id="mask-5" fill="white">
                        <use xlink:href="#path-4"></use>
                    </mask>
                    <g id="cf34cfb5-9399-4bae-9cea-d47bbef6cb3a"></g>
                    <g id="Group" mask="url(#mask-5)" fill="#009FDD" fill-rule="nonzero" opacity="0.4">
                        <g transform="translate(-70.560000, -20.520000)">
                            <polygon id="Path" points="1.926 32.6196 14.9616 12.438 20.4264 21.2652 32.1984 9.0756 42.2892 21.2652 51.1164 3.1896 73.818 39.3444 0.2448 36.8208"></polygon>
                            <circle id="Oval" cx="12.0168" cy="4.0284" r="3.7836"></circle>
                        </g>
                    </g>
                </g>
                <g id="Group" opacity="0.5" transform="translate(70.200000, 163.800000)" fill="url(#linearGradient-2)" fill-rule="nonzero">
                    <rect id="Rectangle" x="0.0108" y="0.3132" width="57.1752" height="58.0176"></rect>
                </g>
                <rect id="Rectangle" fill="#F5F5F5" fill-rule="nonzero" x="70.5708" y="165.3732" width="56.2752" height="55.494"></rect>
                <g id="Group" opacity="0.5" transform="translate(72.360000, 168.480000)" fill="url(#linearGradient-3)" fill-rule="nonzero">
                    <rect id="Rectangle" x="0.1944" y="0.2592" width="52.488" height="36.1548"></rect>
                </g>
                <rect id="c95ac4f6-be4d-44a3-92c2-5c8066e2b531" fill="#FFFFFF" fill-rule="nonzero" x="72.9144" y="169.1568" width="51.7644" height="34.8948"></rect>
                <g id="Clipped" transform="translate(137.160000, 190.800000)">
                    <mask id="mask-7" fill="white">
                        <use xlink:href="#path-6"></use>
                    </mask>
                    <g id="7439734d-5f7c-428f-88ce-e68b86a45c07"></g>
                    <g id="Group" mask="url(#mask-7)" fill="#BDBDBD" fill-rule="nonzero" opacity="0.4">
                        <g transform="translate(-70.560000, -20.520000)">
                            <polygon id="Path" points="1.926 32.5116 14.9616 12.33 20.4264 21.1608 32.1984 8.9676 42.2892 21.1608 51.1164 3.0816 73.818 39.2364 0.2448 36.7164"></polygon>
                            <circle id="Oval" cx="12.0168" cy="3.924" r="3.7836"></circle>
                        </g>
                    </g>
                </g>
                <g id="Group" opacity="0.5" transform="translate(78.840000, 36.360000)" fill="url(#linearGradient-8)" fill-rule="nonzero">
                    <rect id="Rectangle" transform="translate(100.668294, 122.278458) rotate(-78.760000) translate(-100.668294, -122.278458) " x="-7.79970591" y="41.5592583" width="216.936" height="161.4384"></rect>
                </g>
                <rect id="Rectangle" fill="#FFFFFF" fill-rule="nonzero" transform="translate(179.259511, 157.732912) rotate(-78.760000) translate(-179.259511, -157.732912) " x="74.5751114" y="79.5355123" width="209.3688" height="156.3948"></rect>
                <rect id="Rectangle" fill="#E0E0E0" fill-rule="nonzero" transform="translate(186.502365, 63.149486) rotate(11.240000) translate(-186.502365, -63.149486) " x="131.006565" y="62.3088859" width="110.9916" height="1.6812"></rect>
                <rect id="Rectangle" fill="#E0E0E0" fill-rule="nonzero" transform="translate(155.526723, 219.022501) rotate(11.240000) translate(-155.526723, -219.022501) " x="100.030923" y="218.181901" width="110.9916" height="1.6812"></rect>
                <rect id="Rectangle" fill="#E0E0E0" fill-rule="nonzero" transform="translate(141.267763, 226.044665) rotate(11.240000) translate(-141.267763, -226.044665) " x="98.3845634" y="225.204065" width="85.7664" height="1.6812"></rect>
                <rect id="Rectangle" fill="#009FDD" fill-rule="nonzero" opacity="0.7" transform="translate(112.991707, 230.286951) rotate(11.240000) translate(-112.991707, -230.286951) " x="97.0167072" y="229.446351" width="31.95" height="1.6812"></rect>
                <rect id="Rectangle" fill="#009FDD" fill-rule="nonzero" opacity="0.7" transform="translate(157.397835, 67.226706) rotate(11.240000) translate(-157.397835, -67.226706) " x="129.650835" y="66.386106" width="55.494" height="1.6812"></rect>
                <rect id="Rectangle" fill="#E0E0E0" fill-rule="nonzero" transform="translate(177.372113, 81.053013) rotate(11.240000) translate(-177.372113, -81.053013) " x="127.342913" y="80.2124133" width="100.0584" height="1.6812"></rect>
                <rect id="Rectangle" fill="#3AD29F" fill-rule="nonzero" opacity="0.7" transform="translate(138.373501, 83.163688) rotate(11.240000) translate(-138.373501, -83.163688) " x="126.182101" y="82.323088" width="24.3828" height="1.6812"></rect>
                <rect id="Rectangle" fill="#E0E0E0" fill-rule="nonzero" transform="translate(178.964348, 101.088854) rotate(11.240000) translate(-178.964348, -101.088854) " x="123.468548" y="100.248254" width="110.9916" height="1.6812"></rect>
                <g id="Group" opacity="0.5" transform="translate(123.120000, 129.240000)" fill="url(#linearGradient-9)" fill-rule="nonzero">
                    <rect id="Rectangle" transform="translate(54.459106, 38.017788) rotate(-78.760000) translate(-54.459106, -38.017788) " x="25.8715058" y="-11.8008125" width="57.1752" height="99.6372"></rect>
                </g>
                <rect id="Rectangle" fill="#FFFFFF" fill-rule="nonzero" transform="translate(177.637665, 167.052077) rotate(11.240000) translate(-177.637665, -167.052077) " x="128.449065" y="139.094477" width="98.3772" height="55.9152"></rect>
                <rect id="Rectangle" fill="#E0E0E0" fill-rule="nonzero" transform="translate(177.079528, 110.576010) rotate(11.240000) translate(-177.079528, -110.576010) " x="121.583728" y="109.73541" width="110.9916" height="1.6812"></rect>
                <rect id="Rectangle" fill="#009FDD" fill-rule="nonzero" transform="translate(145.477197, 160.660843) rotate(11.240000) translate(-145.477197, -160.660843) " x="139.380597" y="140.270443" width="12.1932" height="40.7808"></rect>
                <rect id="Rectangle" fill="#3AD29F" fill-rule="nonzero" transform="translate(165.607562, 171.520709) rotate(11.240000) translate(-165.607562, -171.520709) " x="159.510962" y="157.856909" width="12.1932" height="27.3276"></rect>
                <rect id="Rectangle" fill="#F55F44" fill-rule="nonzero" transform="translate(185.823884, 181.967220) rotate(11.240000) translate(-185.823884, -181.967220) " x="179.727284" y="174.61062" width="12.1932" height="14.7132"></rect>
                <rect id="Rectangle" fill="#FDD835" fill-rule="nonzero" transform="translate(208.741258, 178.807090) rotate(11.240000) translate(-208.741258, -178.807090) " x="202.644658" y="163.88149" width="12.1932" height="29.8512"></rect>
                <path d="M252.522,126.3636 C242.042767,115.464345 227.608972,109.254596 212.48961,109.140748 C197.370247,109.0269 182.844576,115.018587 172.2024,125.7588 C150.9624,147.1716 150.6024,182.0376 171.378,203.904 C190.22302,223.73947 220.625237,227.094512 243.342,211.8456 L283.9104,254.0412 C284.956318,255.128505 286.68554,255.162348 287.7732,254.1168 L297.882,244.3968 C298.969305,243.350882 299.003148,241.62166 297.9576,240.534 L257.4,198.342 C273.452104,176.343239 271.395424,145.995446 252.522,126.3636 Z M239.886,194.2056 C223.904939,209.569218 198.495144,209.068988 183.131144,193.088295 C167.767143,177.107602 168.266765,151.697795 184.24709,136.333412 C200.227416,120.969029 225.637234,121.468043 241.002,137.448 C248.380892,145.122336 252.408774,155.413711 252.199481,166.057943 C251.990188,176.702175 247.560866,186.827259 239.886,194.2056 L239.886,194.2056 Z" id="Shape" fill="url(#linearGradient-10)" fill-rule="nonzero"></path>
                <path d="M182.3364,154.1016 C177.822,154.1016 177.8148,161.118 182.3364,161.118 C186.858,161.118 186.858,154.1016 182.3364,154.1016 Z" id="Path" fill="url(#linearGradient-11)" fill-rule="nonzero"></path>
                <path d="M213.804,131.6268 C201.654,131.3532 190.5984,137.448 184.7196,146.6496 C182.8008,149.652 188.2476,152.3052 190.1556,149.3172 C195.0228,141.6996 204.2712,136.8612 214.2756,137.1132 C224.7588,137.376 234.2988,143.3736 239.3496,151.6968 C241.2648,154.854 246.2868,151.9848 244.3896,148.8456 C238.248,138.7656 226.3536,131.9256 213.804,131.6268 Z" id="Path" fill="url(#linearGradient-12)" fill-rule="nonzero"></path>
                <path d="M256.9248,124.2324 C246.445567,113.333145 232.011772,107.123396 216.89241,107.009548 C201.773047,106.8957 187.247376,112.887387 176.6052,123.6276 C155.3652,145.0404 155.0052,179.9064 175.7808,201.7728 C194.626757,221.60711 225.028882,224.960622 247.7448,209.7108 L288.3096,251.91 C289.355518,252.997305 291.08474,253.031148 292.1724,251.9856 L302.2812,242.2656 C303.368505,241.219682 303.402348,239.49046 302.3568,238.4028 L261.7884,196.2072 C277.842318,174.212546 275.79178,143.867321 256.9248,124.2324 L256.9248,124.2324 Z M244.2888,192.0456 C228.307739,207.409218 202.897944,206.908988 187.533944,190.928295 C172.169943,174.947602 172.669565,149.537795 188.64989,134.173412 C204.630216,118.809029 230.040034,119.308043 245.4048,135.288 C252.783692,142.962336 256.811574,153.253711 256.602281,163.897943 C256.392988,174.542175 251.963666,184.667259 244.2888,192.0456 Z" id="Shape" fill="#009FDD" fill-rule="nonzero"></path>
                <path d="M186.7392,151.9668 C182.2248,151.9668 182.2176,158.9832 186.7392,158.9832 C191.2608,158.9832 191.2608,151.9668 186.7392,151.9668 Z" id="Path" fill="#009FDD" fill-rule="nonzero"></path>
                <path d="M218.2068,129.4956 C206.0568,129.222 195.0012,135.3168 189.1224,144.5184 C187.2036,147.5208 192.6504,150.174 194.5584,147.186 C199.4256,139.5684 208.674,134.73 218.6784,134.982 C229.1616,135.2448 238.7016,141.2424 243.7524,149.5656 C245.6676,152.7228 250.6896,149.8536 248.7924,146.7144 C242.64,136.6056 230.76,129.7656 218.2068,129.4956 Z" id="Path" fill="#009FDD" fill-rule="nonzero"></path>
                <rect id="Rectangle" fill="#47E6B1" fill-rule="nonzero" x="43.722" y="239.3676" width="1.26" height="7.146"></rect>
                <rect id="Rectangle" fill="#47E6B1" fill-rule="nonzero" transform="translate(44.353800, 242.938800) rotate(90.000000) translate(-44.353800, -242.938800) " x="43.7238" y="239.3658" width="1.26" height="7.146"></rect>
                <path d="M205.8732,3.222 C205.153031,2.90858432 204.782785,2.10457644 205.0128,1.3536 C205.030414,1.29748847 205.04129,1.23948095 205.0452,1.1808 L205.0452,1.1808 C205.068637,0.838134865 204.86345,0.521010296 204.541275,0.401963786 C204.219101,0.282917276 203.857008,0.390426877 203.652,0.666 L203.652,0.666 C203.617362,0.712831909 203.588362,0.763581718 203.5656,0.8172 C203.252184,1.53736893 202.448176,1.90761533 201.6972,1.6776 C201.641088,1.65998643 201.583081,1.64911002 201.5244,1.6452 L201.5244,1.6452 C201.178966,1.62025853 200.859008,1.82782856 200.740987,2.15343229 C200.622966,2.47903602 200.735612,2.84341129 201.0168,3.0456 L201.0168,3.0456 C201.063632,3.08023813 201.114382,3.10923802 201.168,3.132 C201.888169,3.44541568 202.258415,4.24942356 202.0284,5.0004 C202.010786,5.05651153 201.99991,5.11451905 201.996,5.1732 L201.996,5.1732 C201.968342,5.52077608 202.176498,5.8439371 202.504401,5.96248652 C202.832304,6.08103595 203.198993,5.96570381 203.4,5.6808 L203.4,5.6808 C203.434638,5.63396809 203.463638,5.58321828 203.4864,5.5296 C203.799816,4.80943107 204.603824,4.43918467 205.3548,4.6692 C205.410912,4.68681357 205.468919,4.69768998 205.5276,4.7016 L205.5276,4.7016 C205.870265,4.72503697 206.18739,4.51985022 206.306436,4.1976754 C206.425483,3.87550058 206.317973,3.51340766 206.0424,3.3084 L206.0424,3.3084 C205.989938,3.27246495 205.933071,3.24342673 205.8732,3.222 L205.8732,3.222 Z" id="Path" fill="#4D8AF0" fill-rule="nonzero"></path>
                <path d="M49.4784,56.196 C48.7582311,55.8825843 48.3879847,55.0785764 48.618,54.3276 C48.6356136,54.2714885 48.64649,54.2134809 48.6504,54.1548 L48.6504,54.1548 C48.673837,53.8121349 48.4686502,53.4950103 48.1464754,53.3759638 C47.8243006,53.2569173 47.4622077,53.3644269 47.2572,53.64 L47.2572,53.64 C47.2225619,53.6868319 47.193562,53.7375817 47.1708,53.7912 C46.8573843,54.5113689 46.0533764,54.8816153 45.3024,54.6516 C45.2462885,54.6339864 45.1882809,54.62311 45.1296,54.6192 L45.1296,54.6192 C44.7869349,54.595763 44.4698103,54.8009498 44.3507638,55.1231246 C44.2317173,55.4452994 44.3392269,55.8073923 44.6148,56.0124 L44.6148,56.0124 C44.6616319,56.0470381 44.7123817,56.076038 44.766,56.0988 C45.4861689,56.4122157 45.8564153,57.2162236 45.6264,57.9672 C45.6087864,58.0233115 45.59791,58.0813191 45.594,58.14 L45.594,58.14 C45.570563,58.4826651 45.7757498,58.7997897 46.0979246,58.9188362 C46.4200994,59.0378827 46.7821923,58.9303731 46.9872,58.6548 L46.9872,58.6548 C47.0218381,58.6079681 47.050838,58.5572183 47.0736,58.5036 C47.3870157,57.7834311 48.1910236,57.4131847 48.942,57.6432 C48.9981115,57.6608136 49.0561191,57.67169 49.1148,57.6756 L49.1148,57.6756 C49.4574651,57.699037 49.7745897,57.4938502 49.8936362,57.1716754 C50.0126827,56.8495006 49.9051731,56.4874077 49.6296,56.2824 L49.6296,56.2824 C49.5827681,56.2477619 49.5320183,56.218762 49.4784,56.196 L49.4784,56.196 Z" id="Path" fill="#FDD835" fill-rule="nonzero"></path>
                <path d="M271.8792,274.8096 C271.159031,274.496184 270.788785,273.692176 271.0188,272.9412 C271.036414,272.885088 271.04729,272.827081 271.0512,272.7684 L271.0512,272.7684 C271.074637,272.425735 270.86945,272.10861 270.547275,271.989564 C270.225101,271.870517 269.863008,271.978027 269.658,272.2536 L269.658,272.2536 C269.623362,272.300432 269.594362,272.351182 269.5716,272.4048 C269.258184,273.124969 268.454176,273.495215 267.7032,273.2652 C267.647088,273.247586 267.589081,273.23671 267.5304,273.2328 L267.5304,273.2328 C267.187735,273.209363 266.87061,273.41455 266.751564,273.736725 C266.632517,274.058899 266.740027,274.420992 267.0156,274.626 L267.0156,274.626 C267.062432,274.660638 267.113182,274.689638 267.1668,274.7124 C267.886969,275.025816 268.257215,275.829824 268.0272,276.5808 C268.009586,276.636912 267.99871,276.694919 267.9948,276.7536 L267.9948,276.7536 C267.971363,277.096265 268.17655,277.41339 268.498725,277.532436 C268.820899,277.651483 269.182992,277.543973 269.388,277.2684 L269.388,277.2684 C269.422638,277.221568 269.451638,277.170818 269.4744,277.1172 C269.787816,276.397031 270.591824,276.026785 271.3428,276.2568 C271.398912,276.274414 271.456919,276.28529 271.5156,276.2892 L271.5156,276.2892 C271.858265,276.312637 272.17539,276.10745 272.294436,275.785275 C272.413483,275.463101 272.305973,275.101008 272.0304,274.896 L272.0304,274.896 C271.983568,274.861362 271.932818,274.832362 271.8792,274.8096 Z" id="Path" fill="#FDD835" fill-rule="nonzero"></path>
                <circle id="Oval" fill="#F55F44" fill-rule="nonzero" cx="115.614" cy="27.4788" r="2.5236"></circle>
                <circle id="Oval" fill="#F55F44" fill-rule="nonzero" cx="296.3916" cy="59.0076" r="2.5236"></circle>
                <circle id="Oval" fill="#4D8AF0" fill-rule="nonzero" cx="282.0996" cy="134.262" r="2.5236"></circle>
                <circle id="Oval" fill="#47E6B1" fill-rule="nonzero" opacity="0.5" cx="2.5236" cy="10.6596" r="2.5236"></circle>
            </g>
        </g>
    </g>
</svg>