<?xml version="1.0" encoding="UTF-8"?>
<svg width="13px" height="12px" viewBox="0 0 13 12" version="1.1" xmlns="http://www.w3.org/2000/svg" xmlns:xlink="http://www.w3.org/1999/xlink">
    <!-- Generator: sketchtool 57.1 (101010) - https://sketch.com -->
    <title>AE3FDE30-06C2-42BF-9334-31B64A45E497</title>
    <desc>Created with sketchtool.</desc>
    <g id="Page-2" stroke="none" stroke-width="1" fill="none" fill-rule="evenodd">
        <g id="Manage-Link_Error-2-Copy-2" transform="translate(-697.000000, -1227.000000)" fill="#009fdd" fill-rule="nonzero">
            <g id="Group-24" transform="translate(275.000000, 649.000000)">
                <g id="Group-4" transform="translate(0.000000, 47.000000)">
                    <g transform="translate(24.156530, 200.000000)" id="Thumnail-Preview-Copy-4-Thumnail-Preview">
                        <g transform="translate(219.843470, 182.000000)">
                            <g id="Template-with-Thumnail-card-Copy">
                                <g id="Group-4">
                                    <g id="Group-4-Copy-4">
                                        <g id="Thumbnail">
                                            <g id="Bitmap-Copy">
                                                <g id="open-in-new-tab-Open-in-new-tab-icon" transform="translate(176.845070, 147.000000)">
                                                    <path d="M14,10 L14,12 C14,13.1045695 13.1045695,14 12,14 L4,14 C2.8954305,14 2,13.1045695 2,12 L2,4 C2,2.8954305 2.8954305,2 4,2 L6,2 L6,2 L6,4.01467837 L4.74587131,4.01467837 C4.33165775,4.01467837 3.99587131,4.35046481 3.99587131,4.76467837 L3.99587131,11.2597711 C3.99587131,11.6739846 4.33165775,12.0097711 4.74587131,12.0097711 L11.2642202,12.0097711 C11.6784337,12.0097711 12.0142202,11.6739846 12.0142202,11.2597711 L12.0142202,10 L12.0142202,10 L14,10 Z" id="Path"></path>
                                                    <polygon id="Path" points="14 2 8 2 10 4.01467837 6 10 12 6 14 8"></polygon>
                                                </g>
                                            </g>
                                        </g>
                                    </g>
                                </g>
                            </g>
                        </g>
                    </g>
                </g>
            </g>
        </g>
    </g>
</svg>