<?xml version="1.0" encoding="UTF-8"?>
<svg width="15px" height="18px" viewBox="0 0 12 12" version="1.1" xmlns="http://www.w3.org/2000/svg" xmlns:xlink="http://www.w3.org/1999/xlink">
    <!-- Generator: Sketch 57.1 (83088) - https://sketch.com -->
    <title>Elements / search</title>
    <desc>Created with Sketch.</desc>
    <g id="Symbols" stroke="none" stroke-width="1" fill="none" fill-rule="evenodd">
        <g id="elements/Searchbar" transform="translate(-99.000000, -9.000000)" fill="#000000">
            <g id="elements/-search" transform="translate(97.000000, 7.000000)">
                <path d="M7,2.5 C9.48528137,2.5 11.5,4.51471863 11.5,7 C11.5,8.15283147 11.0664942,9.20441224 10.3536036,10.0006213 C10.430573,10.097587 11.3960385,11.0973799 13.25,13 L13.25,13 L12.5,13.75 C10.6066002,11.8219166 9.62675714,10.8055943 9.56047092,10.7010332 C8.83365933,11.2048109 7.95130221,11.5 7,11.5 C4.51471863,11.5 2.5,9.48528137 2.5,7 C2.5,4.51471863 4.51471863,2.5 7,2.5 Z M7,3.5 C5.06700338,3.5 3.5,5.06700338 3.5,7 C3.5,8.93299662 5.06700338,10.5 7,10.5 C8.93299662,10.5 10.5,8.93299662 10.5,7 C10.5,5.06700338 8.93299662,3.5 7,3.5 Z" id="Combined-Shape"></path>
            </g>
        </g>
    </g>
</svg>