<?xml version="1.0" encoding="UTF-8"?>
<svg width="17px" height="18px" viewBox="0 0 17 18" version="1.1" xmlns="http://www.w3.org/2000/svg" xmlns:xlink="http://www.w3.org/1999/xlink">
    <!-- Generator: sketchtool 53.2 (72643) - https://sketchapp.com -->
    <title>756E7CCF-B76A-4C76-8EFB-77DED56FFD17</title>
    <desc>Created with sketchtool.</desc>
    <g id="Page-1" stroke="none" stroke-width="1" fill="none" fill-rule="evenodd">
        <g id="J-Manage-link" transform="translate(-718.000000, -3833.000000)" fill="#000000">
            <g id="Group-10" transform="translate(445.000000, 3760.000000)">
                <g id="Mask-2" transform="translate(0.000000, 47.000000)">
                    <g id="Group-13" transform="translate(259.000000, 15.000000)">
                        <g id="search" transform="translate(11.000000, 8.000000)">
                            <path d="M10.5,17.25 C6.77207794,17.25 3.75,14.2279221 3.75,10.5 C3.75,6.77207794 6.77207794,3.75 10.5,3.75 C14.2279221,3.75 17.25,6.77207794 17.25,10.5 C17.25,12.2292472 16.5997413,13.8066184 15.5304054,15.0009319 C15.6458595,15.1463805 17.0940577,16.6460699 19.875,19.5 L18.75,20.625 C15.9099002,17.7328749 14.4401357,16.2083915 14.3407064,16.0515498 C13.250489,16.8072164 11.9269533,17.25 10.5,17.25 Z M10.5,15.75 C13.3994949,15.75 15.75,13.3994949 15.75,10.5 C15.75,7.60050506 13.3994949,5.25 10.5,5.25 C7.60050506,5.25 5.25,7.60050506 5.25,10.5 C5.25,13.3994949 7.60050506,15.75 10.5,15.75 Z" id="Combined-Shape"></path>
                        </g>
                    </g>
                </g>
            </g>
        </g>
    </g>
</svg>